<?xml version="1.0" encoding="UTF-8" standalone="no"?>
<!-- Created with Inkscape (http://www.inkscape.org/) -->

<svg
   xmlns:dc="http://purl.org/dc/elements/1.1/"
   xmlns:cc="http://creativecommons.org/ns#"
   xmlns:rdf="http://www.w3.org/1999/02/22-rdf-syntax-ns#"
   xmlns:svg="http://www.w3.org/2000/svg"
   xmlns="http://www.w3.org/2000/svg"
   xmlns:xlink="http://www.w3.org/1999/xlink"
   xmlns:sodipodi="http://sodipodi.sourceforge.net/DTD/sodipodi-0.dtd"
   xmlns:inkscape="http://www.inkscape.org/namespaces/inkscape"
   width="800px"
   height="600px"
   id="svg3499"
   version="1.1"
   inkscape:version="0.48.3.1 r9886"
   sodipodi:docname="disegno.svg">
  <defs
     id="defs3501">
    <linearGradient
       inkscape:collect="always"
       xlink:href="#linearGradient4132-6-9"
       id="linearGradient4138-5-0"
       x1="94.329697"
       y1="90.619614"
       x2="150.49271"
       y2="90.619614"
       gradientUnits="userSpaceOnUse" />
    <linearGradient
       inkscape:collect="always"
       id="linearGradient4132-6-9">
      <stop
         style="stop-color:#a59c70;stop-opacity:1;"
         offset="0"
         id="stop4134-5-9" />
      <stop
         style="stop-color:#a59c70;stop-opacity:0;"
         offset="1"
         id="stop4136-3-6" />
    </linearGradient>
    <filter
       color-interpolation-filters="sRGB"
       inkscape:collect="always"
       id="filter4128-5-7">
      <feGaussianBlur
         inkscape:collect="always"
         stdDeviation="0.92242629"
         id="feGaussianBlur4130-0-5" />
    </filter>
    <linearGradient
       y2="90.619614"
       x2="150.49271"
       y1="90.619614"
       x1="94.329697"
       gradientTransform="matrix(1.4062887,0,0,1.0369607,282.73535,86.641647)"
       gradientUnits="userSpaceOnUse"
       id="linearGradient3466"
       xlink:href="#linearGradient4132-6-9"
       inkscape:collect="always" />
    <filter
       color-interpolation-filters="sRGB"
       inkscape:collect="always"
       id="filter4455-1">
      <feGaussianBlur
         inkscape:collect="always"
         stdDeviation="0.36188384"
         id="feGaussianBlur4457-2" />
    </filter>
    <filter
       color-interpolation-filters="sRGB"
       inkscape:collect="always"
       id="filter4051-8">
      <feGaussianBlur
         inkscape:collect="always"
         stdDeviation="0.28877872"
         id="feGaussianBlur4053-0" />
    </filter>
    <filter
       color-interpolation-filters="sRGB"
       inkscape:collect="always"
       id="filter4027-0">
      <feGaussianBlur
         inkscape:collect="always"
         stdDeviation="1.3270251"
         id="feGaussianBlur4029-4" />
    </filter>
    <filter
       color-interpolation-filters="sRGB"
       inkscape:collect="always"
       id="filter4031-1">
      <feGaussianBlur
         inkscape:collect="always"
         stdDeviation="1.3004762"
         id="feGaussianBlur4033-4" />
    </filter>
    <filter
       color-interpolation-filters="sRGB"
       inkscape:collect="always"
       id="filter4035-7-7">
      <feGaussianBlur
         inkscape:collect="always"
         stdDeviation="2.3907916"
         id="feGaussianBlur4037-8-5" />
    </filter>
    <linearGradient
       inkscape:collect="always"
       xlink:href="#linearGradient4132-6-9"
       id="linearGradient3765"
       gradientUnits="userSpaceOnUse"
       gradientTransform="matrix(1.4062887,0,0,1.0369607,282.73535,86.641647)"
       x1="94.329697"
       y1="90.619614"
       x2="150.49271"
       y2="90.619614" />
    <filter
       inkscape:collect="always"
       id="filter3798">
      <feGaussianBlur
         inkscape:collect="always"
         stdDeviation="3.3990557"
         id="feGaussianBlur3800" />
    </filter>
  </defs>
  <sodipodi:namedview
     id="base"
     pagecolor="#ffffff"
     bordercolor="#666666"
     borderopacity="1.0"
     inkscape:pageopacity="0.0"
     inkscape:pageshadow="2"
     inkscape:zoom="0.88333333"
     inkscape:cx="270.29787"
     inkscape:cy="300"
     inkscape:current-layer="layer2"
     inkscape:document-units="px"
     showgrid="false"
     inkscape:window-width="1366"
     inkscape:window-height="711"
     inkscape:window-x="0"
     inkscape:window-y="27"
     inkscape:window-maximized="1" />
  <metadata
     id="metadata3504">
    <rdf:RDF>
      <cc:Work
         rdf:about="">
        <dc:format>image/svg+xml</dc:format>
        <dc:type
           rdf:resource="http://purl.org/dc/dcmitype/StillImage" />
        <dc:title></dc:title>
      </cc:Work>
    </rdf:RDF>
  </metadata>
  <g
     inkscape:groupmode="layer"
     id="layer2"
     inkscape:label="Sfondo"
     sodipodi:insensitive="true"
     style="display:inline">
    <rect
       style="fill:#ffeeaa;fill-opacity:1;stroke:#ffeeaa;stroke-width:1;stroke-linecap:butt;stroke-linejoin:miter;stroke-miterlimit:4;stroke-opacity:1;stroke-dasharray:none;filter:url(#filter3798)"
       id="rect3012"
       width="778.86792"
       height="580.7547"
       x="12.45283"
       y="9.0566034" />
  </g>
  <g
     id="layer1"
     inkscape:label="Immagine"
     inkscape:groupmode="layer"
     style="display:inline"
     sodipodi:insensitive="true">
    <path
       style="fill:#aade87;fill-opacity:1;stroke:#ffeeaa;stroke-width:20;stroke-miterlimit:4;stroke-opacity:1;stroke-dasharray:none;filter:url(#filter4027-0)"
       d="m 586.03306,421.12939 c 1.38847,-6.32164 0.8697,-19.7455 -1.01338,-26.22311 -9.14501,-31.4577 -53.04162,-52.13804 -131.45695,-61.93129 -9.96227,-1.24418 -32.8868,-3.81037 -50.9434,-5.70264 -50.58898,-5.30155 -73.01119,-8.70829 -87.16981,-13.24422 -24.21944,-7.75909 -34.2322,-23.11921 -25.93042,-39.7787 11.12949,-22.33399 55.00318,-33.15793 127.81721,-31.53341 67.05453,1.49603 118.29271,11.3199 157.35849,30.17026 40.53026,19.55701 60.48258,45.43773 60.54664,78.53677 0.0535,27.67186 -13.85392,49.79995 -43.39077,69.03875 l -6.61771,4.31044 0.8001,-3.64285 0,0 z"
       id="path3027"
       inkscape:connector-curvature="0" />
    <path
       style="fill:#aade87;fill-opacity:1;stroke:#ffeeaa;stroke-width:20;stroke-miterlimit:4;stroke-opacity:1;stroke-dasharray:none;filter:url(#filter4031-1)"
       d="m 364.6948,457.86588 c -70.04956,-2.98057 -118.39718,-15.23904 -156.54651,-39.69214 -9.77194,-6.26366 -25.0866,-21.52492 -29.97613,-29.87163 -13.79679,-23.5519 -13.43986,-51.44114 0.96246,-75.20487 4.97149,-8.20291 16.19104,-19.60486 26.24895,-26.67568 l 8.17916,-5.75003 0.66209,9.98577 c 2.7448,41.39721 47.23571,60.33727 169.71527,72.24885 46.15129,4.48838 66.60104,7.61383 86.03773,13.14964 21.80099,6.20918 34.63977,14.5964 39.25614,25.64494 2.37323,5.67995 2.2066,15.97416 -0.3458,21.36287 -8.29461,17.51188 -37.60621,29.26929 -82.51477,33.09814 -15.42115,1.31479 -49.015,2.24297 -61.67859,1.70414 l 0,0 z"
       id="path3025"
       inkscape:connector-curvature="0" />
    <g
       transform="matrix(1.4107834,0,0,0.70882604,6.35518,85.22781)"
       style="font-size:514.65130615px;font-style:normal;font-variant:normal;font-weight:normal;font-stretch:normal;line-height:125%;letter-spacing:0px;word-spacing:0px;fill:#afc6e9;fill-opacity:1;stroke:none;filter:url(#filter4035-7-7);font-family:DejaVu Sans;-inkscape-font-specification:DejaVu Sans"
       id="text3003">
      <path
         id="path3012"
         d="m 388.77912,198.02375 0,49.50503 c -19.26617,-9.21381 -37.44313,-16.08252 -54.53092,-20.60615 -17.08824,-4.52297 -33.5899,-6.78462 -49.50503,-6.78496 -27.64255,3.4e-4 -49.00257,5.36129 -64.08012,16.08286 -14.91024,10.72221 -22.36531,25.9674 -22.36522,45.73561 -9e-5,16.58571 4.94204,29.15042 14.82638,37.69419 10.05167,8.37672 28.98251,15.16166 56.79258,20.35486 l 30.65793,6.28236 c 37.8615,7.20399 65.75517,19.93624 83.6811,38.19678 18.09292,18.09337 27.13952,42.38515 27.13982,72.87543 -3e-4,36.35402 -12.22996,63.91263 -36.68901,82.67592 -24.29205,18.76333 -59.97585,28.14498 -107.0515,28.14499 -17.75828,-10e-6 -36.68912,-2.01036 -56.79257,-6.03107 -19.93612,-4.02071 -40.62602,-9.96801 -62.06976,-17.84192 l 0,-52.26927 c 20.6061,11.55961 40.79341,20.27115 60.56199,26.13464 19.76839,5.86358 39.20182,8.79534 58.30034,8.79531 28.98246,3e-5 51.34766,-5.69597 67.09566,-17.08803 15.74755,-11.39196 23.62144,-27.64233 23.62169,-48.75115 -2.5e-4,-18.42815 -5.69625,-32.83569 -17.08803,-43.22267 -11.22471,-10.38669 -29.73673,-18.17681 -55.53611,-23.3704 l -30.90923,-6.03107 c -37.86182,-7.53865 -65.2529,-19.34949 -82.17333,-35.43253 -16.92054,-16.08263 -25.38079,-38.44783 -25.38075,-67.09566 -4e-5,-33.17057 11.64327,-59.30518 34.92995,-78.40391 23.45406,-19.09801 55.7035,-28.6472 96.74841,-28.64758 17.59044,3.8e-4 35.5161,1.59191 53.77704,4.7746 18.2605,3.18344 36.94005,7.95803 56.03869,14.32379 m -108.17529,22.73794 c -50.99804,3.4e-4 -91.56444,13.8505 -121.69931,41.5505 -29.90339,27.70061 -44.855,65.45072 -44.85489,113.25044 -1.1e-4,47.6312 14.9515,85.29686 44.85489,112.99709 30.13487,27.70038 70.70127,41.55053 121.69931,41.5505 50.99747,3e-5 91.33205,-13.85012 121.00388,-41.5505 29.90281,-27.70023 44.85443,-65.36589 44.85487,-112.99709 -4.4e-4,-47.79972 -14.95206,-85.54983 -44.85487,-113.25044 -29.67183,-27.7 -70.00641,-41.55016 -121.00388,-41.5505 m 0,-41.55049 c 72.78741,3.8e-4 130.97121,17.81978 174.55156,53.45826 43.57945,35.47023 65.36939,83.10124 65.36992,142.89317 -5.3e-4,59.62341 -21.79047,107.25442 -65.36992,142.89318 -43.58035,35.46995 -101.76415,53.20489 -174.55156,53.2049 -73.0198,-10e-6 -131.4354,-17.73495 -175.247,-53.2049 -43.580007,-35.46986 -65.369956,-83.10087 -65.369917,-142.89318 -3.9e-5,-59.79193 21.78991,-107.42294 65.369917,-142.89317 43.8116,-35.63848 102.2272,-53.45788 175.247,-53.45826"
         inkscape:connector-curvature="0" />
    </g>
    <g
       style="font-size:40px;font-style:oblique;font-variant:normal;font-weight:normal;font-stretch:normal;line-height:125%;letter-spacing:0px;word-spacing:0px;fill:#496ea5;fill-opacity:1;stroke:none;filter:url(#filter4051-8);font-family:DejaVu Sans;-inkscape-font-specification:DejaVu Sans Oblique"
       id="text3151"
       transform="matrix(11.366809,0,0,2.0122217,-1414.3493,347.77626)">
      <path
         id="path3156"
         d="m 165.25795,26.010098 -2.44141,12.480468 -3.59375,0 0.66407,-3.320312 c -1.05471,1.302085 -2.25913,2.278647 -3.61329,2.929687 -1.34115,0.638021 -2.83855,0.957031 -4.49218,0.957032 -1.86199,-10e-7 -3.39193,-0.566407 -4.58985,-1.699219 -1.18489,-1.145831 -1.77734,-2.610674 -1.77734,-4.394531 0,-2.552076 1.01562,-4.570303 3.04687,-6.054688 2.04427,-1.484362 4.85677,-2.226549 8.4375,-2.226562 l 5,0 0.19532,-0.957032 c 0.026,-0.104152 0.0456,-0.214829 0.0586,-0.332031 0.013,-0.130193 0.0195,-0.325505 0.0195,-0.585937 -2e-5,-1.158838 -0.47528,-2.057274 -1.42578,-2.695313 -0.93751,-0.651023 -2.25913,-0.976543 -3.96484,-0.976562 -1.17189,1.9e-5 -2.37632,0.149758 -3.61328,0.449218 -1.22397,0.299498 -2.48699,0.748716 -3.78907,1.347657 l 0.625,-3.320313 c 1.35416,-0.507791 2.67578,-0.885395 3.96485,-1.132812 1.30207,-0.260395 2.55858,-0.390603 3.76953,-0.390625 2.57811,2.2e-5 4.53774,0.559917 5.8789,1.679687 1.35415,1.119811 2.03123,2.747414 2.03125,4.882813 -2e-5,0.429702 -0.0326,0.937514 -0.0977,1.523437 -0.0651,0.57293 -0.16278,1.184909 -0.29297,1.835938 m -3.88672,1.484375 -3.59375,0 c -2.94272,10e-6 -5.12371,0.397146 -6.54297,1.191406 -1.40625,0.781259 -2.10938,1.998705 -2.10937,3.652344 -1e-5,1.145838 0.35806,2.044274 1.07422,2.695312 0.72916,0.651044 1.73176,0.976565 3.00781,0.976563 1.95311,2e-6 3.65884,-0.696612 5.11719,-2.089844 1.45831,-1.406244 2.42185,-3.281242 2.89062,-5.625 l 0.15625,-0.800781"
         inkscape:connector-curvature="0"
         style="fill:#496ea5;fill-opacity:1" />
    </g>
    <path
       id="path4395"
       style="fill:#aade87;fill-opacity:1;stroke:#c6e9af;stroke-width:1;stroke-linecap:butt;stroke-linejoin:miter;stroke-miterlimit:4;stroke-opacity:1;stroke-dasharray:none;filter:url(#filter4455-1)"
       d="m 422.82633,225.5272 c 0.0281,-2.82912 2.5342,-13.59154 3.9272,-16.86508 6.325,-14.86346 21.5139,-26.68195 44.4595,-34.59392 5.3805,-1.8553 6.0529,-1.96986 11.5616,-1.96986 6.6473,0 8.1075,0.5054 7.0686,2.4466 -0.7442,1.39062 -8.4338,6.48198 -13.2066,8.74433 -17.2411,8.17225 -20.6526,10.10645 -29.0611,16.47636 -5.9763,4.52737 -14.9625,13.78177 -20.1599,20.76156 -3.3865,4.54793 -4.5979,5.86769 -4.5893,5.00001 z m 57.2383,-66.43287 c -2.2,-0.50583 -5.0125,-1.28753 -6.25,-1.7371 -3.9497,-1.43489 -12.5832,-3.62715 -18,-4.57063 -7.9096,-1.3777 -23.2435,-1.27539 -31.1015,0.2075 -3.21836,0.60733 -6.03086,1.10012 -6.25002,1.09509 -0.78225,-0.018 8.15862,-5.6462 11.18832,-7.04304 10.3762,-4.78381 24.5466,-5.5432 41.7558,-2.23767 5.6013,1.0759 14.6399,3.44512 17.9175,4.69662 1.718,0.65594 5.222,4.23931 6.0131,6.14923 0.744,1.79626 0.3126,2.84228 -1.5723,3.81164 -1.7485,0.89924 -9.0329,0.70165 -13.7009,-0.37164 z m 22.7229,-9.408 c -3.1051,-1.97243 -8.6587,-8.12555 -11.1154,-12.31555 -7.7577,-13.23058 -19.1981,-23.96018 -34.3975,-32.26022 -5.1756,-2.82628 -5.2401,-2.81619 4.4326,-0.69282 9.0787,1.99295 14.5189,4.3241 22.4115,9.60336 8.2524,5.51995 17.9388,15.60124 24.3352,25.32724 2.774,4.2181 2.9452,4.6498 2.7319,6.89132 -0.4558,4.79034 -3.9958,6.24318 -8.3983,3.44667 l 0,0 z m 18.42859,1.6454 c -0.4368,-0.95872 -0.4345,-2.32605 0.01,-5.625 0.818,-6.07583 1.2091,-7.23309 4.225,-12.50123 11.4877,-20.0666 26.1168,-32.14204 42.8639,-35.381598 3.8322,-0.74131 16.0884,-0.9891 19.6681,-0.39764 1.9071,0.31508 1.8852,0.33062 -3.75,2.669848 -8.2717,3.4337 -12.4142,5.62279 -19.4181,10.26137 -10.9095,7.22513 -19.6003,15.77149 -26.9767,26.52832 -5.2038,7.58845 -13.1451,15.71254 -15.3591,15.71254 -0.3771,0 -0.9454,-0.56997 -1.2628,-1.26661 z m 14.8862,9.61833 c -0.9396,-0.6991 -0.9303,-0.77042 0.3929,-3.02832 2.5769,-4.39717 8.1057,-10.00557 12.3559,-12.53378 22.2176,-13.21597 43.22518,-15.25742 56.52688,-5.4931 2.6691,1.95931 12.6946,12.61219 12.2695,13.03731 -0.1437,0.14369 -2.2462,-0.31337 -4.6721,-1.01569 -9.0037,-2.60665 -12.3074,-3.05735 -22.41078,-3.05735 -13.0264,0 -20.6512,1.63637 -33.7687,7.24723 -10.2491,4.38392 -18.6642,6.35361 -20.6936,4.8437 l 0,0 z m 55.92358,58.5296 c -12.07048,-17.71815 -28.12828,-31.53788 -44.49488,-38.29346 -6.4651,-2.66858 -15.2164,-9.07471 -15.2164,-11.1387 0,-1.29298 2.2319,-2.30431 6.287,-2.84887 2.8545,-0.38333 4.0502,-0.30253 6.8048,0.45988 7.4507,2.06219 17.2431,6.96269 23.5601,11.79052 11.8008,9.01871 18.4575,19.15526 23.55368,35.86632 1.2524,4.10686 2.2073,7.53679 2.122,7.62208 -0.085,0.0853 -1.2626,-1.47071 -2.6163,-3.45777 z m -67.11858,-23.56355 c 30.5487,36.2897 16.2654,88.89081 25.4551,50.28413 9.1898,-38.60666 -20.5114,-63.86697 -20.5114,-63.86697 -9.104,-4.28066 -16.99119,-7.12388 -4.9437,13.58284 z"
       inkscape:connector-curvature="0" />
    <g
       transform="matrix(1.1099043,0,0,0.90097861,-14.58816,59.512702)"
       style="font-size:191.63769531px;font-style:italic;font-variant:normal;font-weight:normal;font-stretch:normal;text-align:start;line-height:125%;letter-spacing:0px;word-spacing:0px;writing-mode:lr-tb;text-anchor:start;fill:#d4aa00;fill-opacity:1;stroke:url(#linearGradient4138-5-0);stroke-opacity:1;filter:url(#filter4128-5-7);font-family:Comic Sans MS;-inkscape-font-specification:Comic Sans MS Italic"
       id="text4112-1">
      <path
         inkscape:connector-curvature="0"
         id="path4141-1"
         style="stroke:url(#linearGradient3765);stroke-width:1.20758688"
         d="m 470.47437,130.20269 c -4.21098,1.2e-4 -7.54461,-1.09957 -10.00091,-3.29908 -2.45642,-2.19925 -3.28983,-4.85145 -2.50023,-7.95658 0.87722,-3.10488 3.15812,-5.75708 6.84272,-7.9566 3.68448,-2.19924 7.6322,-3.29893 11.84318,-3.29907 4.21082,1.4e-4 7.50058,1.09983 9.8693,3.29907 2.45627,2.19952 3.24582,4.85172 2.36864,7.9566 -0.78964,3.10513 -3.02668,5.75733 -6.71113,7.95658 -3.59689,2.19951 -7.50075,3.2992 -11.71157,3.29908 m -15.39614,78.78968 c -1.05277,3.8813 -2.50028,9.70319 -4.34249,17.46569 -1.7546,7.69786 -3.15823,13.48741 -4.2109,17.36866 -0.78959,2.84627 -2.63186,5.17502 -5.52682,6.98627 -2.8073,1.81126 -6.14094,2.71689 -10.00089,2.71689 -3.7723,0 -6.62344,-0.90563 -8.5534,-2.71689 -1.93003,-1.81125 -2.50025,-4.14 -1.71068,-6.98627 1.05269,-3.88125 2.45632,-9.6708 4.21091,-17.36866 1.84223,-7.7625 3.28973,-13.58439 4.34249,-17.46569 1.66678,-6.08061 4.167,-13.64906 7.50067,-22.70541 3.33359,-9.12089 5.83382,-16.72169 7.50068,-22.80242 0.78949,-2.91086 2.63175,-5.27196 5.52681,-7.08331 2.89494,-1.81116 6.22856,-2.71679 10.0009,-2.71689 3.77219,1e-4 6.62333,0.90573 8.5534,2.71689 1.92992,1.81135 2.50015,4.17245 1.71068,7.08331 -1.6669,6.08073 -4.16711,13.68153 -7.50068,22.80242 -3.33369,9.05635 -5.83391,16.6248 -7.50068,22.70541" />
    </g>
  </g>
</svg>
